<svg xmlns="http://www.w3.org/2000/svg" width="9.822" height="23.573" viewBox="0 0 9.822 23.573">
  <g id="remote-control" transform="translate(-56 0.004)">
    <path id="Path_1385" data-name="Path 1385" d="M63.858,64H57.964A1.964,1.964,0,0,0,56,65.964V77.751a1.964,1.964,0,0,0,1.964,1.964h5.893a1.964,1.964,0,0,0,1.964-1.964V65.964A1.964,1.964,0,0,0,63.858,64ZM59.929,76.768H57.964V74.8h1.964Zm3.929,0H61.893V74.8h1.964ZM60.911,72.84a2.947,2.947,0,1,1,2.947-2.947A2.947,2.947,0,0,1,60.911,72.84Z" transform="translate(0 -56.146)" fill="#4d7aac"/>
    <circle id="Ellipse_7" data-name="Ellipse 7" cx="2" cy="2" r="2" transform="translate(59 11.565)" fill="#4d7aac"/>
    <path id="Path_1386" data-name="Path 1386" d="M79.029,32.861l1.389,1.389a.982.982,0,0,1,1.389,0L83.2,32.861a2.947,2.947,0,0,0-4.167,0Z" transform="translate(-20.202 -28.073)" fill="#4d7aac"/>
    <path id="Path_1387" data-name="Path 1387" d="M61.262,1.961A4.879,4.879,0,0,1,64.735,3.4L66.124,2.01a6.875,6.875,0,0,0-9.724,0L57.789,3.4a4.879,4.879,0,0,1,3.473-1.438Z" transform="translate(-0.351)" fill="#4d7aac"/>
  </g>
</svg>
